<?xml version="1.0" encoding="utf-8"?>
<!-- Generator: Adobe Illustrator 23.0.4, SVG Export Plug-In . SVG Version: 6.00 Build 0)  -->
<svg version="1.1" id="レイヤー_1" xmlns="http://www.w3.org/2000/svg" xmlns:xlink="http://www.w3.org/1999/xlink" x="0px"
	 y="0px" viewBox="0 0 247.3 42.44" style="enable-background:new 0 0 247.3 42.44;" xml:space="preserve">
<style type="text/css">
	.st0{fill:#FFFFFF;}
</style>
<g>
	<path class="st0" d="M16.42,22.33c1.18,0.92,2.53,1.66,4,2.21c1.32,0.49,2.7,0.95,3.96,1.32l2.06,0.72
		c0.6,0.21,1.18,0.44,1.73,0.68c0.26,0.11,1.06,0.43,1.06,1.92c0,0.93-0.24,1.58-0.73,2c-0.57,0.48-1.6,0.73-2.97,0.73H15.38
		c-1.03,0-1.87,0.84-1.87,1.87c0,1.03,0.84,1.87,1.87,1.87h10.27h0c2.25-0.02,4.03-0.56,5.28-1.62c1.36-1.15,2.05-2.79,2.05-4.86
		c0-1.73-0.41-3-1.25-3.87c-0.65-0.68-1.35-1.18-2.07-1.49c-0.61-0.27-1.27-0.53-1.98-0.77l-2.15-0.75
		c-1.27-0.38-2.56-0.81-3.82-1.27c-1.12-0.41-2.13-0.97-3.01-1.65c-0.81-0.63-1.48-1.46-1.99-2.47c-0.51-0.99-0.76-2.32-0.76-3.94
		c0-1.45,0.25-2.76,0.73-3.89c0.48-1.11,1.16-2.07,2.02-2.85c0.87-0.78,1.96-1.39,3.24-1.81c1.34-0.44,2.87-0.66,4.56-0.66h12.1
		c1.03,0,1.87-0.84,1.87-1.87S39.64,0,38.61,0h-12.1c-2.08,0-4,0.28-5.72,0.84c-1.78,0.58-3.32,1.45-4.58,2.58
		c-1.27,1.14-2.26,2.54-2.96,4.16c-0.69,1.6-1.04,3.41-1.04,5.37c0,2.22,0.39,4.11,1.17,5.64C14.15,20.1,15.17,21.35,16.42,22.33z"
		/>
	<path class="st0" d="M36.43,19.58c-1.18-0.92-2.53-1.66-4-2.2c-1.31-0.48-2.67-0.96-4.06-1.41c-0.57-0.17-2.99-1.04-3.6-1.35
		c-0.27-0.12-1.16-0.62-1.16-1.88c0-0.45,0.07-0.82,0.2-1.05c0.15-0.26,0.33-0.47,0.55-0.62c0.25-0.17,0.56-0.3,0.94-0.37
		c0.5-0.1,1.02-0.15,1.53-0.15h9.95c1.03,0,1.87-0.84,1.87-1.87c0-1.03-0.84-1.87-1.87-1.87H26.51l-0.5,0v0.02
		c-0.49,0.04-0.97,0.1-1.45,0.2c-0.87,0.18-1.66,0.5-2.33,0.97c-0.7,0.49-1.27,1.12-1.7,1.89c-0.44,0.79-0.66,1.76-0.66,2.86
		c0,1.7,0.45,3,1.35,3.86c0.67,0.65,1.32,1.12,1.94,1.4c0.85,0.42,3.48,1.37,4.11,1.55c1.27,0.41,2.57,0.86,3.86,1.34
		c1.12,0.41,2.13,0.97,3.01,1.65c0.82,0.64,1.5,1.47,2.04,2.47c0.51,0.97,0.77,2.26,0.77,3.83s-0.28,2.98-0.84,4.19
		c-0.56,1.21-1.33,2.24-2.3,3.05c-0.98,0.83-2.18,1.48-3.56,1.92c-1.43,0.46-3.03,0.69-4.76,0.69H13.55c-1.03,0-1.87,0.84-1.87,1.87
		s0.84,1.87,1.87,1.87h12.1l0,0c2.05-0.01,3.98-0.3,5.73-0.86c1.85-0.59,3.48-1.48,4.84-2.63c1.38-1.17,2.48-2.63,3.27-4.33
		c0.79-1.7,1.19-3.64,1.19-5.76c0-2.19-0.41-4.07-1.21-5.58C38.7,21.78,37.68,20.54,36.43,19.58z"/>
	<path class="st0" d="M42.61,6.8c-1.03,0-1.87,0.84-1.87,1.87s0.84,1.87,1.87,1.87s1.87-0.84,1.87-1.87S43.64,6.8,42.61,6.8z"/>
	<path class="st0" d="M48.44,6.8c-1.03,0-1.87,0.84-1.87,1.87s0.84,1.87,1.87,1.87s1.87-0.84,1.87-1.87S49.47,6.8,48.44,6.8z"/>
	<path class="st0" d="M44.44,0c-1.03,0-1.87,0.84-1.87,1.87s0.84,1.87,1.87,1.87s1.87-0.84,1.87-1.87S45.47,0,44.44,0z"/>
	<path class="st0" d="M50.27,0c-1.03,0-1.87,0.84-1.87,1.87s0.84,1.87,1.87,1.87s1.87-0.84,1.87-1.87S51.3,0,50.27,0z"/>
	<path class="st0" d="M1.87,38.7C0.84,38.7,0,39.54,0,40.57s0.84,1.87,1.87,1.87s1.87-0.84,1.87-1.87S2.9,38.7,1.87,38.7z"/>
	<path class="st0" d="M7.7,38.7c-1.03,0-1.87,0.84-1.87,1.87s0.84,1.87,1.87,1.87s1.87-0.84,1.87-1.87S8.73,38.7,7.7,38.7z"/>
	<path class="st0" d="M3.7,31.9c-1.03,0-1.87,0.84-1.87,1.87s0.84,1.87,1.87,1.87s1.87-0.84,1.87-1.87S4.73,31.9,3.7,31.9z"/>
	<path class="st0" d="M9.53,31.9c-1.03,0-1.87,0.84-1.87,1.87s0.84,1.87,1.87,1.87s1.87-0.84,1.87-1.87S10.56,31.9,9.53,31.9z"/>
	<path class="st0" d="M77.47,26.34c-0.67-0.66-1.45-1.21-2.31-1.65c-0.83-0.42-1.71-0.8-2.61-1.13c-0.89-0.33-1.78-0.63-2.68-0.91
		c-0.85-0.27-1.64-0.59-2.34-0.96c-0.22-0.11-0.44-0.24-0.67-0.39c-0.19-0.12-0.37-0.3-0.55-0.54c-0.18-0.25-0.34-0.55-0.47-0.9
		c-0.12-0.34-0.19-0.79-0.19-1.34c0-0.7,0.11-1.29,0.34-1.75c0.22-0.45,0.51-0.8,0.88-1.05c0.39-0.27,0.85-0.46,1.36-0.57
		c1.18-0.27,2.55-0.22,3.42-0.02c0.48,0.11,0.92,0.24,1.31,0.39c0.42,0.17,0.82,0.31,1.18,0.43c0.41,0.14,0.85,0.21,1.3,0.21
		c0.93,0,1.68-0.28,2.22-0.85c0.54-0.56,0.81-1.22,0.81-1.97c0-0.92-0.42-1.71-1.2-2.28c-0.69-0.5-1.52-0.88-2.46-1.15
		c-0.92-0.26-1.87-0.44-2.82-0.53c-0.96-0.09-1.72-0.14-2.33-0.14c-3.09,0-5.58,0.85-7.41,2.52c-1.85,1.69-2.78,4.03-2.78,6.96
		c0,1.4,0.21,2.61,0.62,3.61c0.41,1,0.97,1.85,1.66,2.54c0.68,0.68,1.46,1.24,2.34,1.68c0.84,0.42,1.73,0.8,2.63,1.11
		c0.89,0.31,1.77,0.61,2.64,0.89c0.84,0.27,1.63,0.58,2.32,0.92c0.4,0.2,0.82,0.55,1.26,1.03c0.38,0.43,0.58,1.17,0.58,2.19
		c0,1.31-0.36,2.28-1.11,2.96c-0.75,0.69-1.94,1.04-3.55,1.04c-0.84,0-1.58-0.07-2.21-0.21c-0.65-0.14-1.22-0.3-1.71-0.48
		l-1.37-0.51c-1.43-0.53-2.54-0.24-3.34,0.62c-0.53,0.57-0.8,1.24-0.8,1.98c0,0.88,0.4,1.62,1.19,2.21
		c0.68,0.51,1.52,0.93,2.47,1.24c0.93,0.31,1.94,0.53,2.98,0.66c1.03,0.14,1.96,0.2,2.75,0.2c1.53,0,2.98-0.22,4.3-0.65
		c1.34-0.44,2.52-1.09,3.5-1.95c0.99-0.86,1.77-1.93,2.32-3.17c0.55-1.24,0.83-2.67,0.83-4.24c0-1.37-0.21-2.56-0.62-3.55
		C78.71,27.85,78.15,27.01,77.47,26.34z"/>
	<path class="st0" d="M104.6,12.84c-0.93-1.11-2.13-2-3.58-2.64c-1.44-0.64-3.2-0.96-5.21-0.96s-3.77,0.32-5.22,0.96
		c-1.45,0.64-2.65,1.53-3.58,2.64c-0.92,1.11-1.6,2.41-2.02,3.87c-0.41,1.43-0.62,2.96-0.62,4.54v9.11c0,1.65,0.24,3.22,0.71,4.67
		c0.48,1.47,1.2,2.77,2.15,3.86c0.95,1.09,2.16,1.97,3.59,2.61c1.43,0.64,3.1,0.96,4.97,0.96c1.87,0,3.55-0.32,4.97-0.96
		c1.43-0.64,2.64-1.51,3.59-2.61c0.95-1.09,1.67-2.38,2.15-3.85c0.47-1.45,0.71-3.03,0.71-4.67v-9.11c0-1.58-0.21-3.11-0.62-4.54
		C106.2,15.24,105.52,13.94,104.6,12.84z M101.17,30.35c0,1.92-0.45,3.48-1.34,4.65c-0.86,1.13-2.18,1.68-4.03,1.68
		c-1.88,0-3.2-0.55-4.05-1.68c-0.87-1.17-1.32-2.74-1.32-4.66v-9.11c0-1.93,0.42-3.49,1.24-4.65c0.79-1.11,2.14-1.65,4.13-1.65
		c1.99,0,3.34,0.54,4.13,1.65c0.82,1.16,1.24,2.72,1.24,4.65V30.35z"/>
	<path class="st0" d="M133.77,37.86c-1.68-2.3-3.34-4.59-4.99-6.89c-1.56-2.17-3.13-4.34-4.72-6.52l8.83-10.41
		c0.29-0.33,0.49-0.67,0.59-1c0.09-0.31,0.13-0.62,0.13-0.94c0-0.87-0.34-1.57-1-2.11c-1.13-0.91-2.36-0.95-3.38-0.33
		c-0.42,0.25-0.77,0.54-1.06,0.86l-8.88,10.58v-8.95c0-0.79-0.3-1.47-0.89-2.05c-1.17-1.14-3.11-1.13-4.28,0
		c-0.59,0.57-0.89,1.26-0.89,2.05V39.5c0,0.79,0.3,1.47,0.89,2.05c1.17,1.13,3.11,1.13,4.29,0c0.59-0.57,0.89-1.26,0.89-2.05v-9.42
		l0.86-1.04l8.6,12.08c0.58,0.83,1.45,1.28,2.53,1.28c1,0,1.75-0.35,2.26-1.05c0.46-0.63,0.69-1.29,0.69-1.94
		c0-0.25-0.03-0.5-0.08-0.72C134.1,38.45,133.98,38.19,133.77,37.86z"/>
	<path class="st0" d="M157.33,9.24c-0.84,0-1.56,0.3-2.13,0.89c-0.57,0.59-0.86,1.29-0.86,2.1v18.78c0,1.71-0.41,3.11-1.22,4.16
		c-0.79,1.02-2,1.51-3.7,1.51c-1.73,0-2.96-0.49-3.74-1.51c-0.81-1.05-1.22-2.45-1.22-4.16V12.23c0-0.84-0.3-1.56-0.89-2.13
		c-0.59-0.57-1.29-0.86-2.1-0.86c-0.87,0-1.6,0.29-2.19,0.86c-0.59,0.57-0.89,1.29-0.89,2.13v18.78c0,1.62,0.24,3.15,0.72,4.53
		c0.48,1.4,1.2,2.62,2.14,3.64c0.94,1.02,2.11,1.83,3.48,2.4c1.37,0.57,2.95,0.86,4.7,0.86c1.69,0,3.24-0.29,4.61-0.86
		c1.37-0.57,2.54-1.38,3.5-2.4c0.95-1.01,1.69-2.24,2.18-3.64h0c0.49-1.39,0.74-2.91,0.74-4.53V12.23c0-0.81-0.31-1.52-0.91-2.11
		C158.94,9.53,158.19,9.24,157.33,9.24z"/>
	<path class="st0" d="M183.76,26.34c-0.68-0.66-1.45-1.21-2.31-1.65c-0.83-0.42-1.71-0.8-2.61-1.13c-0.89-0.33-1.78-0.63-2.68-0.91
		c-0.85-0.27-1.64-0.59-2.34-0.96c-0.22-0.11-0.44-0.24-0.67-0.39c-0.19-0.12-0.37-0.3-0.55-0.54c-0.18-0.25-0.34-0.55-0.47-0.9
		c-0.12-0.34-0.19-0.79-0.19-1.34c0-0.7,0.11-1.29,0.34-1.75c0.22-0.45,0.51-0.8,0.88-1.05c0.39-0.27,0.85-0.46,1.36-0.57
		c1.19-0.27,2.55-0.22,3.42-0.02c0.48,0.11,0.92,0.24,1.31,0.39c0.42,0.17,0.82,0.31,1.18,0.43c0.41,0.14,0.85,0.21,1.3,0.21
		c0.93,0,1.68-0.28,2.22-0.85c0.54-0.56,0.81-1.22,0.81-1.97c0-0.92-0.42-1.71-1.2-2.28c-0.69-0.5-1.52-0.88-2.46-1.15
		c-0.92-0.26-1.87-0.44-2.82-0.53c-0.96-0.09-1.72-0.14-2.33-0.14c-3.09,0-5.58,0.85-7.41,2.52c-1.84,1.69-2.78,4.03-2.78,6.96
		c0,1.4,0.21,2.61,0.62,3.61c0.41,1,0.97,1.85,1.66,2.54c0.67,0.68,1.46,1.24,2.34,1.68c0.84,0.42,1.73,0.8,2.63,1.11
		c0.89,0.31,1.77,0.61,2.64,0.89c0.84,0.27,1.63,0.58,2.32,0.92c0.4,0.2,0.82,0.55,1.26,1.03c0.38,0.43,0.58,1.17,0.58,2.19
		c0,1.31-0.36,2.28-1.11,2.96c-0.75,0.69-1.94,1.04-3.55,1.04c-0.84,0-1.58-0.07-2.22-0.21c-0.65-0.14-1.22-0.3-1.71-0.48
		l-1.37-0.51c-1.43-0.53-2.54-0.24-3.35,0.62c-0.53,0.57-0.8,1.24-0.8,1.98c0,0.88,0.4,1.62,1.19,2.21
		c0.69,0.51,1.52,0.93,2.47,1.24c0.93,0.31,1.94,0.53,2.98,0.66c1.03,0.14,1.96,0.2,2.75,0.2c1.53,0,2.98-0.22,4.3-0.65
		c1.34-0.44,2.52-1.09,3.5-1.95c0.99-0.86,1.77-1.93,2.32-3.17c0.55-1.24,0.83-2.67,0.83-4.24c0-1.37-0.21-2.56-0.62-3.55
		C185,27.85,184.45,27.01,183.76,26.34z"/>
	<path class="st0" d="M207.45,36.29h-9.7v-7.64h8.41c0.84,0,1.55-0.28,2.12-0.83c0.58-0.56,0.87-1.25,0.87-2.07
		c0-0.83-0.32-1.53-0.96-2.07c-0.61-0.52-1.29-0.79-2.03-0.79h-8.41v-7.5h9.25c0.82,0,1.54-0.26,2.12-0.77
		c0.6-0.53,0.91-1.22,0.91-2.04c0-0.81-0.3-1.52-0.89-2.09c-0.59-0.57-1.31-0.86-2.14-0.86h-11.98c-0.96,0-1.77,0.34-2.4,1.01
		c-0.62,0.66-0.94,1.4-0.94,2.2v25.94c0,1.54,0.74,2.26,1.36,2.59c0.78,0.41,1.68,0.62,2.69,0.62h11.71c0.83,0,1.55-0.28,2.14-0.83
		c0.6-0.56,0.9-1.27,0.9-2.12c0-0.77-0.31-1.43-0.94-1.98C208.95,36.55,208.24,36.29,207.45,36.29z"/>
	<path class="st0" d="M236.26,37.86c-1.68-2.3-3.34-4.59-4.99-6.89c-1.56-2.17-3.13-4.34-4.72-6.52l8.83-10.41
		c0.29-0.33,0.49-0.67,0.59-1c0.09-0.31,0.13-0.62,0.13-0.94c0-0.86-0.34-1.57-1-2.11c-1.14-0.91-2.36-0.95-3.38-0.33
		c-0.42,0.25-0.77,0.54-1.06,0.86l-8.88,10.58v-8.95c0-0.79-0.3-1.47-0.89-2.05c-1.17-1.14-3.11-1.14-4.28,0
		c-0.59,0.57-0.89,1.26-0.89,2.05V39.5c0,0.79,0.3,1.47,0.89,2.05c1.17,1.13,3.11,1.13,4.28,0c0.59-0.57,0.89-1.26,0.89-2.05v-9.42
		l0.86-1.04l8.6,12.08c0.58,0.83,1.45,1.28,2.53,1.28c1,0,1.76-0.35,2.26-1.05c0.46-0.63,0.69-1.29,0.69-1.94
		c0-0.25-0.03-0.49-0.08-0.72C236.59,38.45,236.47,38.19,236.26,37.86z"/>
	<path class="st0" d="M246.41,10.09c-1.17-1.14-3.12-1.13-4.28,0c-0.59,0.57-0.89,1.26-0.89,2.05v27.4c0,0.75,0.3,1.43,0.88,2.02
		c0.59,0.59,1.31,0.88,2.15,0.88c0.84,0,1.56-0.3,2.15-0.88c0.59-0.59,0.88-1.27,0.88-2.02v-27.4
		C247.3,11.35,247,10.67,246.41,10.09z"/>
</g>
</svg>
