<?xml version="1.0" encoding="utf-8"?>
<!-- Generator: Adobe Illustrator 23.0.4, SVG Export Plug-In . SVG Version: 6.00 Build 0)  -->
<svg version="1.1" id="レイヤー_1" xmlns="http://www.w3.org/2000/svg" xmlns:xlink="http://www.w3.org/1999/xlink" x="0px"
	 y="0px" viewBox="0 0 155.96 90.64" style="enable-background:new 0 0 155.96 90.64;" xml:space="preserve">
<g>
	<path d="M14.99,77.27c-0.56-0.55-1.21-1.01-1.92-1.37c-0.69-0.35-1.42-0.67-2.16-0.94c-0.74-0.27-1.48-0.52-2.22-0.76
		c-0.71-0.22-1.36-0.49-1.95-0.8c-0.18-0.09-0.37-0.2-0.56-0.32c-0.15-0.1-0.31-0.25-0.46-0.45c-0.15-0.2-0.28-0.46-0.39-0.75
		c-0.1-0.28-0.15-0.66-0.15-1.12c0-0.58,0.09-1.07,0.28-1.45c0.18-0.38,0.42-0.66,0.73-0.87c0.33-0.22,0.71-0.38,1.13-0.48
		c0.98-0.22,2.12-0.18,2.84-0.02c0.4,0.09,0.77,0.2,1.08,0.33c0.35,0.14,0.68,0.26,0.98,0.36c0.34,0.11,0.7,0.17,1.08,0.17
		c0.77,0,1.4-0.24,1.85-0.7c0.45-0.46,0.67-1.01,0.67-1.63c0-0.77-0.34-1.42-1-1.89c-0.57-0.41-1.26-0.73-2.05-0.96
		c-0.76-0.22-1.55-0.36-2.34-0.44C9.64,63.12,9,63.08,8.5,63.08c-2.56,0-4.63,0.7-6.15,2.09c-1.53,1.4-2.31,3.35-2.31,5.78
		c0,1.16,0.17,2.17,0.51,3c0.34,0.83,0.8,1.54,1.37,2.11c0.56,0.56,1.22,1.03,1.95,1.4c0.7,0.35,1.43,0.66,2.19,0.92
		c0.74,0.26,1.47,0.5,2.19,0.74c0.7,0.23,1.35,0.48,1.93,0.76c0.33,0.17,0.68,0.45,1.04,0.86c0.32,0.36,0.48,0.97,0.48,1.81
		c0,1.09-0.3,1.89-0.92,2.46c-0.62,0.57-1.61,0.86-2.95,0.86c-0.69,0-1.31-0.06-1.84-0.17c-0.54-0.12-1.01-0.25-1.42-0.4l-1.14-0.42
		c-1.19-0.44-2.11-0.2-2.78,0.51C0.22,85.85,0,86.4,0,87.02c0,0.73,0.33,1.34,0.99,1.83c0.57,0.42,1.26,0.77,2.05,1.03
		c0.77,0.25,1.61,0.44,2.48,0.55c0.86,0.11,1.63,0.17,2.28,0.17c1.27,0,2.47-0.18,3.57-0.54c1.11-0.36,2.09-0.91,2.91-1.62
		c0.82-0.72,1.47-1.6,1.93-2.63c0.45-1.03,0.69-2.21,0.69-3.52c0-1.14-0.17-2.13-0.52-2.95C16.03,78.53,15.56,77.83,14.99,77.27z"/>
	<path d="M37.51,66.07c-0.77-0.92-1.77-1.66-2.97-2.19c-1.2-0.53-2.65-0.79-4.33-0.79s-3.13,0.27-4.33,0.79
		c-1.2,0.53-2.2,1.27-2.97,2.19c-0.76,0.92-1.33,2-1.67,3.21c-0.34,1.19-0.51,2.46-0.51,3.77v7.56c0,1.37,0.2,2.67,0.59,3.88
		c0.4,1.22,1,2.3,1.79,3.2c0.79,0.91,1.79,1.64,2.98,2.16c1.18,0.53,2.57,0.8,4.13,0.8c1.55,0,2.94-0.27,4.13-0.8
		c1.19-0.53,2.19-1.26,2.98-2.16c0.79-0.9,1.39-1.98,1.79-3.2c0.39-1.21,0.59-2.51,0.59-3.88v-7.56c0-1.31-0.17-2.58-0.51-3.77
		C38.84,68.07,38.28,66.99,37.51,66.07z M34.67,80.6c0,1.59-0.37,2.89-1.11,3.86c-0.71,0.94-1.81,1.4-3.34,1.4
		c-1.56,0-2.66-0.46-3.36-1.4c-0.73-0.97-1.09-2.27-1.09-3.86v-7.56c0-1.6,0.35-2.9,1.03-3.86c0.65-0.92,1.77-1.37,3.43-1.37
		c1.65,0,2.77,0.45,3.43,1.37c0.68,0.96,1.03,2.26,1.03,3.86V80.6z"/>
	<path d="M61.73,86.84c-1.39-1.91-2.77-3.81-4.14-5.72c-1.29-1.8-2.6-3.61-3.92-5.41L61,67.07c0.24-0.27,0.41-0.55,0.49-0.83
		c0.07-0.25,0.11-0.52,0.11-0.78c0-0.72-0.28-1.31-0.83-1.75c-0.94-0.75-1.96-0.79-2.81-0.28c-0.35,0.21-0.64,0.44-0.88,0.71
		l-7.37,8.78v-7.43c0-0.65-0.25-1.22-0.74-1.7c-0.97-0.94-2.58-0.94-3.56,0c-0.49,0.47-0.74,1.05-0.74,1.7V88.2
		c0,0.65,0.25,1.22,0.74,1.7c0.97,0.94,2.58,0.94,3.56,0c0.49-0.47,0.74-1.05,0.74-1.7v-7.82l0.72-0.87l7.14,10.03
		c0.48,0.69,1.21,1.06,2.1,1.06c0.83,0,1.46-0.29,1.87-0.87c0.38-0.53,0.57-1.07,0.57-1.61c0-0.21-0.02-0.41-0.07-0.6
		C62,87.33,61.9,87.11,61.73,86.84z"/>
	<path d="M81.28,63.08c-0.7,0-1.3,0.25-1.77,0.74c-0.47,0.49-0.71,1.07-0.71,1.74v15.59c0,1.42-0.34,2.58-1.01,3.46
		c-0.65,0.84-1.66,1.25-3.07,1.25c-1.44,0-2.46-0.41-3.11-1.25c-0.67-0.87-1.01-2.03-1.01-3.46V65.56c0-0.7-0.25-1.3-0.74-1.77
		c-0.49-0.47-1.07-0.71-1.74-0.71c-0.72,0-1.33,0.24-1.81,0.71c-0.49,0.47-0.74,1.07-0.74,1.77v15.59c0,1.35,0.2,2.61,0.6,3.76
		c0.4,1.16,1,2.18,1.77,3.02c0.78,0.84,1.75,1.52,2.89,1.99c1.13,0.48,2.44,0.72,3.9,0.72c1.4,0,2.69-0.24,3.83-0.72
		c1.14-0.48,2.11-1.15,2.9-1.99c0.79-0.84,1.4-1.86,1.81-3.02h0c0.41-1.15,0.62-2.42,0.62-3.76V65.56c0-0.68-0.25-1.27-0.76-1.75
		C82.62,63.32,82,63.08,81.28,63.08z"/>
	<path d="M103.22,77.27c-0.56-0.55-1.21-1.01-1.92-1.37c-0.69-0.35-1.42-0.67-2.16-0.94c-0.74-0.27-1.48-0.52-2.22-0.76
		c-0.71-0.22-1.36-0.49-1.95-0.8c-0.18-0.09-0.37-0.2-0.56-0.32c-0.16-0.1-0.31-0.25-0.46-0.45c-0.15-0.2-0.28-0.46-0.39-0.75
		c-0.1-0.28-0.15-0.66-0.15-1.11c0-0.58,0.09-1.07,0.28-1.45c0.18-0.38,0.42-0.66,0.73-0.87c0.33-0.22,0.71-0.38,1.13-0.48
		c0.99-0.22,2.12-0.18,2.84-0.02c0.4,0.09,0.77,0.2,1.08,0.33c0.35,0.14,0.68,0.26,0.98,0.36c0.34,0.11,0.7,0.17,1.08,0.17
		c0.77,0,1.4-0.24,1.84-0.7c0.45-0.46,0.67-1.01,0.67-1.63c0-0.77-0.34-1.42-1-1.89c-0.57-0.41-1.26-0.73-2.04-0.96
		c-0.76-0.22-1.55-0.36-2.34-0.44c-0.8-0.08-1.43-0.11-1.94-0.11c-2.56,0-4.63,0.7-6.15,2.09c-1.53,1.4-2.31,3.35-2.31,5.78
		c0,1.16,0.17,2.17,0.52,3c0.34,0.83,0.8,1.54,1.37,2.11c0.56,0.56,1.21,1.03,1.95,1.4c0.7,0.35,1.43,0.66,2.19,0.92
		c0.74,0.26,1.47,0.5,2.19,0.74c0.7,0.23,1.35,0.48,1.93,0.76c0.33,0.17,0.68,0.45,1.04,0.86c0.32,0.36,0.48,0.97,0.48,1.81
		c0,1.09-0.3,1.89-0.92,2.46c-0.62,0.57-1.61,0.86-2.95,0.86c-0.69,0-1.31-0.06-1.84-0.17c-0.54-0.12-1.01-0.25-1.42-0.4l-1.14-0.42
		c-1.19-0.44-2.11-0.2-2.78,0.51c-0.44,0.47-0.67,1.03-0.67,1.64c0,0.73,0.33,1.34,0.99,1.83c0.57,0.42,1.26,0.77,2.05,1.03
		c0.77,0.25,1.61,0.44,2.47,0.55c0.86,0.11,1.63,0.17,2.28,0.17c1.27,0,2.47-0.18,3.57-0.54c1.11-0.36,2.09-0.91,2.91-1.62
		c0.82-0.72,1.47-1.6,1.93-2.63c0.46-1.03,0.69-2.21,0.69-3.52c0-1.14-0.17-2.13-0.52-2.95C104.25,78.53,103.79,77.83,103.22,77.27z
		"/>
	<path d="M122.88,85.53h-8.05v-6.34h6.98c0.7,0,1.29-0.23,1.76-0.69c0.48-0.46,0.72-1.04,0.72-1.72c0-0.69-0.27-1.27-0.8-1.72
		c-0.51-0.43-1.07-0.65-1.68-0.65h-6.98v-6.23h7.68c0.68,0,1.28-0.21,1.76-0.64c0.5-0.44,0.76-1.01,0.76-1.7
		c0-0.67-0.25-1.26-0.74-1.73c-0.49-0.47-1.08-0.71-1.78-0.71h-9.94c-0.8,0-1.47,0.28-2,0.83c-0.52,0.55-0.78,1.16-0.78,1.83v21.53
		c0,1.28,0.61,1.87,1.13,2.15c0.64,0.34,1.4,0.52,2.23,0.52h9.72c0.69,0,1.29-0.23,1.77-0.69c0.49-0.46,0.75-1.06,0.75-1.76
		c0-0.64-0.26-1.19-0.78-1.64C124.13,85.75,123.54,85.53,122.88,85.53z"/>
	<path d="M146.8,86.84c-1.39-1.91-2.77-3.81-4.14-5.72c-1.29-1.8-2.6-3.61-3.92-5.41l7.33-8.64c0.24-0.27,0.41-0.55,0.49-0.83
		c0.07-0.25,0.11-0.52,0.11-0.78c0-0.72-0.28-1.31-0.83-1.75c-0.94-0.75-1.96-0.79-2.81-0.28c-0.35,0.21-0.64,0.45-0.88,0.71
		l-7.37,8.78v-7.43c0-0.65-0.25-1.22-0.74-1.7c-0.97-0.94-2.58-0.94-3.56,0c-0.49,0.47-0.74,1.05-0.74,1.7V88.2
		c0,0.65,0.25,1.22,0.74,1.7c0.97,0.94,2.58,0.94,3.56,0c0.49-0.47,0.74-1.05,0.74-1.7v-7.82l0.72-0.87l7.14,10.03
		c0.48,0.69,1.21,1.06,2.1,1.06c0.83,0,1.46-0.29,1.87-0.87c0.38-0.53,0.57-1.07,0.57-1.61c0-0.21-0.02-0.41-0.07-0.6
		C147.07,87.32,146.97,87.11,146.8,86.84z"/>
	<path d="M155.22,63.79c-0.97-0.94-2.59-0.94-3.56,0c-0.49,0.48-0.74,1.05-0.74,1.7v22.74c0,0.63,0.25,1.19,0.73,1.67
		c0.49,0.49,1.09,0.73,1.78,0.73c0.7,0,1.3-0.25,1.78-0.73c0.49-0.49,0.73-1.05,0.73-1.67V65.49
		C155.96,64.84,155.71,64.27,155.22,63.79z"/>
	<path d="M68.54,22.33c1.18,0.92,2.53,1.66,4,2.21c1.32,0.49,2.7,0.95,3.96,1.32l2.06,0.72c0.6,0.21,1.18,0.44,1.73,0.68
		c0.26,0.11,1.06,0.43,1.06,1.92c0,0.93-0.24,1.58-0.73,2c-0.57,0.48-1.6,0.73-2.97,0.73H67.49c-1.03,0-1.87,0.84-1.87,1.87
		c0,1.03,0.84,1.87,1.87,1.87h10.27h0c2.25-0.02,4.03-0.56,5.28-1.62c1.36-1.15,2.05-2.79,2.05-4.86c0-1.73-0.41-3-1.25-3.87
		c-0.65-0.68-1.35-1.18-2.07-1.49c-0.61-0.27-1.27-0.53-1.98-0.77l-2.15-0.75c-1.27-0.38-2.56-0.81-3.82-1.27
		c-1.12-0.41-2.13-0.97-3.01-1.65c-0.81-0.63-1.48-1.46-1.99-2.47c-0.51-0.99-0.76-2.32-0.76-3.94c0-1.45,0.25-2.76,0.73-3.89
		c0.48-1.11,1.16-2.07,2.02-2.85c0.87-0.78,1.96-1.39,3.24-1.81c1.34-0.44,2.87-0.66,4.56-0.66h12.1c1.03,0,1.87-0.84,1.87-1.87
		S91.76,0,90.72,0h-12.1c-2.08,0-4,0.28-5.72,0.84c-1.78,0.58-3.32,1.45-4.58,2.58c-1.27,1.14-2.26,2.54-2.96,4.16
		c-0.69,1.6-1.04,3.41-1.04,5.37c0,2.22,0.39,4.11,1.17,5.64C66.27,20.1,67.29,21.35,68.54,22.33z"/>
	<path d="M77.76,42.44L77.76,42.44c2.06-0.01,3.99-0.31,5.74-0.87c1.85-0.59,3.48-1.48,4.84-2.63c1.38-1.17,2.48-2.63,3.27-4.33
		c0.79-1.7,1.19-3.64,1.19-5.76c0-2.19-0.41-4.07-1.21-5.58c-0.78-1.48-1.81-2.72-3.05-3.68c-1.18-0.92-2.53-1.66-4-2.2
		c-1.31-0.48-2.67-0.96-4.06-1.41c-0.57-0.17-2.99-1.04-3.6-1.35c-0.27-0.12-1.16-0.62-1.16-1.88c0-0.45,0.07-0.82,0.2-1.05
		c0.15-0.26,0.33-0.47,0.55-0.62c0.25-0.17,0.56-0.3,0.94-0.37c0.5-0.1,1.02-0.15,1.53-0.15h9.95c1.03,0,1.87-0.84,1.87-1.87
		c0-1.03-0.84-1.87-1.87-1.87H78.62l-0.5,0v0.02c-0.49,0.04-0.97,0.1-1.45,0.2c-0.87,0.18-1.66,0.5-2.33,0.97
		c-0.7,0.49-1.27,1.12-1.7,1.89c-0.44,0.79-0.66,1.76-0.66,2.86c0,1.7,0.45,3,1.35,3.86c0.67,0.65,1.32,1.12,1.94,1.4
		c0.85,0.42,3.48,1.37,4.11,1.55c1.27,0.41,2.57,0.86,3.86,1.34c1.12,0.41,2.13,0.97,3.01,1.65c0.82,0.64,1.5,1.47,2.04,2.47
		c0.51,0.97,0.77,2.26,0.77,3.83s-0.28,2.98-0.84,4.19c-0.56,1.21-1.33,2.24-2.3,3.05c-0.98,0.83-2.18,1.48-3.56,1.92
		c-1.43,0.46-3.03,0.69-4.76,0.69H65.66c-1.03,0-1.87,0.84-1.87,1.87s0.84,1.87,1.87,1.87H77.76z"/>
	<path d="M94.73,10.54c1.03,0,1.87-0.84,1.87-1.87S95.76,6.8,94.73,6.8s-1.87,0.84-1.87,1.87S93.7,10.54,94.73,10.54z"/>
	<path d="M100.55,10.54c1.03,0,1.87-0.84,1.87-1.87s-0.84-1.87-1.87-1.87s-1.87,0.84-1.87,1.87S99.52,10.54,100.55,10.54z"/>
	<path d="M96.56,3.74c1.03,0,1.87-0.84,1.87-1.87S97.59,0,96.56,0s-1.87,0.84-1.87,1.87S95.53,3.74,96.56,3.74z"/>
	<path d="M102.38,3.74c1.03,0,1.87-0.84,1.87-1.87S103.41,0,102.38,0s-1.87,0.84-1.87,1.87S101.35,3.74,102.38,3.74z"/>
	<path d="M53.98,42.44c1.03,0,1.87-0.84,1.87-1.87s-0.84-1.87-1.87-1.87s-1.87,0.84-1.87,1.87S52.95,42.44,53.98,42.44z"/>
	<path d="M59.81,42.44c1.03,0,1.87-0.84,1.87-1.87s-0.84-1.87-1.87-1.87s-1.87,0.84-1.87,1.87S58.78,42.44,59.81,42.44z"/>
	<path d="M55.81,35.64c1.03,0,1.87-0.84,1.87-1.87s-0.84-1.87-1.87-1.87s-1.87,0.84-1.87,1.87S54.78,35.64,55.81,35.64z"/>
	<path d="M61.64,31.9c-1.03,0-1.87,0.84-1.87,1.87s0.84,1.87,1.87,1.87s1.87-0.84,1.87-1.87S62.67,31.9,61.64,31.9z"/>
</g>
</svg>
