<?xml version="1.0" encoding="utf-8"?>
<!-- Generator: Adobe Illustrator 23.0.4, SVG Export Plug-In . SVG Version: 6.00 Build 0)  -->
<svg version="1.1" id="レイヤー_1" xmlns="http://www.w3.org/2000/svg" xmlns:xlink="http://www.w3.org/1999/xlink" x="0px"
	 y="0px" viewBox="0 0 59 59" style="enable-background:new 0 0 59 59;" xml:space="preserve">
<style type="text/css">
	.st0{fill:#FFFFFF;}
	.st1{fill:#E5E5E5;}
</style>
<circle class="st0" cx="29.5" cy="29.5" r="28.5"/>
<g>
	<path class="st1" d="M32.5,14.48h-6.28c-4.1,0-7.38,3.55-7.38,7.65v6.01c0,4.37,3.28,7.65,7.38,7.65h6.28
		c4.37,0,7.65-3.28,7.65-7.38v-6.28C40.15,17.75,36.6,14.48,32.5,14.48z"/>
	<path class="st1" d="M29.5,0C13.11,0,0,13.38,0,29.5c0,8.19,3.33,15.57,8.71,20.9c0.08,0.14,0.16,0.27,0.3,0.41
		c0.98,0.9,2.05,1.72,3.11,2.49c0.46,0.36,0.93,0.68,1.42,0.98c0,0,0.03,0,0.03,0.03c3.09,1.99,6.56,3.41,10.27,4.15
		c0.22,0.05,0.44,0.05,0.66,0.11c0.68,0.11,1.39,0.25,2.1,0.3c0.96,0.08,1.91,0.14,2.9,0.14s1.94-0.05,2.92-0.14
		c0.6-0.05,1.17-0.16,1.75-0.25c0.33-0.08,0.71-0.11,1.07-0.19c0.68-0.14,1.34-0.33,2.02-0.49c0.25-0.05,0.49-0.11,0.74-0.19
		c0.68-0.22,1.37-0.46,2.05-0.71c0.19-0.08,0.41-0.14,0.6-0.22c0.71-0.3,1.39-0.63,2.08-0.96c0.14-0.08,0.27-0.14,0.41-0.19
		C52.58,50.72,59,40.81,59,29.53C59,13.38,45.89,0,29.5,0z M49.14,48.13c-4.92-6.15-12.16-9.61-19.91-9.61
		c-7.65,0-14.53,3.36-19.42,9.34C5.27,42.99,2.46,36.55,2.46,29.5c0-15.02,12.29-27.04,27.04-27.04S56.54,14.48,56.54,29.5
		C56.54,36.74,53.73,43.29,49.14,48.13z"/>
</g>
</svg>
